<mxfile host="Electron" modified="2024-10-04T05:39:58.430Z" agent="Mozilla/5.0 (Windows NT 10.0; Win64; x64) AppleWebKit/537.36 (KHTML, like Gecko) draw.io/23.0.2 Chrome/120.0.6099.109 Electron/28.1.0 Safari/537.36" etag="bVxhNOfzpptz8TAfpbpy" version="23.0.2" type="device">
  <diagram name="Page-1" id="2fJcGlAFP10mFMeL1n3p">
    <mxGraphModel dx="6544" dy="2824" grid="0" gridSize="10" guides="1" tooltips="1" connect="1" arrows="1" fold="1" page="0" pageScale="1" pageWidth="827" pageHeight="1169" math="0" shadow="0">
      <root>
        <mxCell id="0" />
        <mxCell id="1" parent="0" />
        <mxCell id="0Ua5E3VJeulz5l_jUgdA-70" value="" style="whiteSpace=wrap;html=1;aspect=fixed;fillColor=none;" parent="1" vertex="1">
          <mxGeometry x="-2267" y="-325.25" width="1489.5" height="1489.5" as="geometry" />
        </mxCell>
        <mxCell id="vBNEGQhEsHAN2P_JnBU3-4" value="" style="ellipse;html=1;shape=startState;fillColor=#000000;strokeColor=#ff0000;" parent="1" vertex="1">
          <mxGeometry x="-1387.27" y="-94.00000000000001" width="30" height="30" as="geometry" />
        </mxCell>
        <mxCell id="vBNEGQhEsHAN2P_JnBU3-5" value="" style="html=1;verticalAlign=bottom;endArrow=open;endSize=8;strokeColor=#ff0000;rounded=0;edgeStyle=orthogonalEdgeStyle;entryX=0.5;entryY=0;entryDx=0;entryDy=0;" parent="1" source="vBNEGQhEsHAN2P_JnBU3-4" target="5RerIEgN9e02NIq5gecx-35" edge="1">
          <mxGeometry relative="1" as="geometry">
            <mxPoint x="-1371.77" y="-33" as="targetPoint" />
          </mxGeometry>
        </mxCell>
        <mxCell id="vBNEGQhEsHAN2P_JnBU3-9" value="Delete Question" style="rounded=1;whiteSpace=wrap;html=1;arcSize=43;fontColor=#000000;fillColor=#ffffc0;strokeColor=#ff0000;" parent="1" vertex="1">
          <mxGeometry x="-1415.2199999999998" y="405" width="84.12" height="29" as="geometry" />
        </mxCell>
        <mxCell id="bBVDjb1Iw1jjZOPMRiYV-6" value="Choice" style="rhombus;whiteSpace=wrap;html=1;fontColor=#000000;fillColor=#ffffc0;strokeColor=#ff0000;" parent="1" vertex="1">
          <mxGeometry x="-1412.58" y="322" width="80" height="40" as="geometry" />
        </mxCell>
        <mxCell id="BYvYoB54RzEUqweGQ_cK-1" value="View Created Quiz Details on Dashboard in Tabular Form" style="rounded=1;whiteSpace=wrap;html=1;arcSize=40;fontColor=#000000;fillColor=#ffffc0;strokeColor=#ff0000;" parent="1" vertex="1">
          <mxGeometry x="-1437.29" y="49" width="128.27" height="52" as="geometry" />
        </mxCell>
        <mxCell id="5RerIEgN9e02NIq5gecx-22" value="" style="edgeStyle=orthogonalEdgeStyle;html=1;verticalAlign=bottom;endArrow=open;endSize=8;strokeColor=#ff0000;rounded=0;exitX=0.5;exitY=1;exitDx=0;exitDy=0;entryX=1;entryY=0.5;entryDx=0;entryDy=0;" parent="1" source="TpdrdtEgg3zLDzQh49ds-70" edge="1" target="BYvYoB54RzEUqweGQ_cK-1">
          <mxGeometry relative="1" as="geometry">
            <mxPoint x="-1213.4" y="486" as="targetPoint" />
            <mxPoint x="-1210.65" y="447" as="sourcePoint" />
            <Array as="points">
              <mxPoint x="-1166" y="518" />
              <mxPoint x="-990" y="518" />
              <mxPoint x="-990" y="75" />
            </Array>
          </mxGeometry>
        </mxCell>
        <mxCell id="5RerIEgN9e02NIq5gecx-23" value="" style="html=1;verticalAlign=bottom;endArrow=open;endSize=8;strokeColor=#ff0000;rounded=0;exitX=0;exitY=0.5;exitDx=0;exitDy=0;entryX=0;entryY=0;entryDx=0;entryDy=0;edgeStyle=orthogonalEdgeStyle;" parent="1" source="TpdrdtEgg3zLDzQh49ds-65" edge="1" target="bBVDjb1Iw1jjZOPMRiYV-6">
          <mxGeometry relative="1" as="geometry">
            <mxPoint x="-1555.25" y="486" as="targetPoint" />
            <mxPoint x="-1437" y="448" as="sourcePoint" />
            <Array as="points">
              <mxPoint x="-1672" y="419" />
              <mxPoint x="-1672" y="314" />
              <mxPoint x="-1393" y="314" />
            </Array>
          </mxGeometry>
        </mxCell>
        <mxCell id="5RerIEgN9e02NIq5gecx-30" value="" style="edgeStyle=orthogonalEdgeStyle;html=1;verticalAlign=bottom;endArrow=open;endSize=8;strokeColor=#ff0000;rounded=0;exitX=0.5;exitY=1;exitDx=0;exitDy=0;entryX=0.5;entryY=0;entryDx=0;entryDy=0;" parent="1" source="BYvYoB54RzEUqweGQ_cK-1" target="0Ua5E3VJeulz5l_jUgdA-2" edge="1">
          <mxGeometry relative="1" as="geometry">
            <mxPoint x="-1372.27" y="121.57999999999993" as="targetPoint" />
            <mxPoint x="-1361.77" y="165" as="sourcePoint" />
          </mxGeometry>
        </mxCell>
        <mxCell id="5RerIEgN9e02NIq5gecx-35" value="Login?" style="rhombus;whiteSpace=wrap;html=1;fontColor=#000000;fillColor=#ffffc0;strokeColor=#ff0000;" parent="1" vertex="1">
          <mxGeometry x="-1412.27" y="-28" width="80" height="40" as="geometry" />
        </mxCell>
        <mxCell id="5RerIEgN9e02NIq5gecx-36" value="Student" style="edgeStyle=orthogonalEdgeStyle;html=1;align=left;verticalAlign=bottom;endArrow=open;endSize=8;strokeColor=#ff0000;rounded=0;entryX=0.5;entryY=0;entryDx=0;entryDy=0;" parent="1" source="5RerIEgN9e02NIq5gecx-35" target="5RerIEgN9e02NIq5gecx-39" edge="1">
          <mxGeometry x="-1" relative="1" as="geometry">
            <mxPoint x="-785.5400000000001" y="-60.58" as="targetPoint" />
          </mxGeometry>
        </mxCell>
        <mxCell id="5RerIEgN9e02NIq5gecx-37" value="Teacher" style="edgeStyle=orthogonalEdgeStyle;html=1;align=left;verticalAlign=top;endArrow=open;endSize=8;strokeColor=#ff0000;rounded=0;entryX=0.5;entryY=0;entryDx=0;entryDy=0;" parent="1" source="5RerIEgN9e02NIq5gecx-35" target="BYvYoB54RzEUqweGQ_cK-1" edge="1">
          <mxGeometry x="-1" relative="1" as="geometry">
            <mxPoint x="-1373.77" y="44" as="targetPoint" />
          </mxGeometry>
        </mxCell>
        <mxCell id="5RerIEgN9e02NIq5gecx-39" value="View Given Quiz Details on Dashboard in Tabular Form" style="rounded=1;whiteSpace=wrap;html=1;arcSize=40;fontColor=#000000;fillColor=#ffffc0;strokeColor=#ff0000;" parent="1" vertex="1">
          <mxGeometry x="-961" y="55" width="143" height="51.02" as="geometry" />
        </mxCell>
        <mxCell id="5RerIEgN9e02NIq5gecx-43" value="" style="edgeStyle=orthogonalEdgeStyle;html=1;verticalAlign=bottom;endArrow=open;endSize=8;strokeColor=#ff0000;rounded=0;exitX=0.5;exitY=1;exitDx=0;exitDy=0;entryX=0.5;entryY=0;entryDx=0;entryDy=0;" parent="1" source="5RerIEgN9e02NIq5gecx-39" target="5RerIEgN9e02NIq5gecx-49" edge="1">
          <mxGeometry relative="1" as="geometry">
            <mxPoint x="-901" y="349.02" as="targetPoint" />
            <mxPoint x="-865.0000000000001" y="117" as="sourcePoint" />
          </mxGeometry>
        </mxCell>
        <mxCell id="5RerIEgN9e02NIq5gecx-49" value="" style="ellipse;html=1;shape=endState;fillColor=#000000;strokeColor=#ff0000;" parent="1" vertex="1">
          <mxGeometry x="-904.5" y="141.01999999999998" width="30" height="30" as="geometry" />
        </mxCell>
        <mxCell id="TpdrdtEgg3zLDzQh49ds-64" value="" style="edgeStyle=orthogonalEdgeStyle;html=1;verticalAlign=bottom;endArrow=open;endSize=8;strokeColor=#ff0000;rounded=0;exitX=0;exitY=0.5;exitDx=0;exitDy=0;entryX=0.5;entryY=0;entryDx=0;entryDy=0;" parent="1" source="bBVDjb1Iw1jjZOPMRiYV-6" target="TpdrdtEgg3zLDzQh49ds-65" edge="1">
          <mxGeometry relative="1" as="geometry">
            <mxPoint x="-1773.29" y="387" as="targetPoint" />
            <mxPoint x="-1896.54" y="352" as="sourcePoint" />
          </mxGeometry>
        </mxCell>
        <mxCell id="TpdrdtEgg3zLDzQh49ds-65" value="Update Quiz Settings" style="rounded=1;whiteSpace=wrap;html=1;arcSize=43;fontColor=#000000;fillColor=#ffffc0;strokeColor=#ff0000;" parent="1" vertex="1">
          <mxGeometry x="-1646" y="405" width="93" height="30" as="geometry" />
        </mxCell>
        <mxCell id="TpdrdtEgg3zLDzQh49ds-70" value="Home" style="rounded=1;whiteSpace=wrap;html=1;arcSize=43;fontColor=#000000;fillColor=#ffffc0;strokeColor=#ff0000;" parent="1" vertex="1">
          <mxGeometry x="-1189" y="405.5" width="53" height="24" as="geometry" />
        </mxCell>
        <mxCell id="TpdrdtEgg3zLDzQh49ds-77" value="" style="edgeStyle=orthogonalEdgeStyle;html=1;verticalAlign=bottom;endArrow=open;endSize=8;strokeColor=#ff0000;rounded=0;exitX=0.5;exitY=1;exitDx=0;exitDy=0;entryX=0.5;entryY=0;entryDx=0;entryDy=0;" parent="1" source="0Ua5E3VJeulz5l_jUgdA-1" target="bBVDjb1Iw1jjZOPMRiYV-6" edge="1">
          <mxGeometry relative="1" as="geometry">
            <mxPoint x="-1373" y="298" as="targetPoint" />
            <mxPoint x="-1372.27" y="542" as="sourcePoint" />
          </mxGeometry>
        </mxCell>
        <mxCell id="TpdrdtEgg3zLDzQh49ds-86" value="" style="html=1;verticalAlign=bottom;endArrow=open;endSize=8;strokeColor=#ff0000;rounded=0;exitX=0.5;exitY=1;exitDx=0;exitDy=0;entryX=0.5;entryY=0;entryDx=0;entryDy=0;edgeStyle=orthogonalEdgeStyle;" parent="1" source="bBVDjb1Iw1jjZOPMRiYV-6" target="vBNEGQhEsHAN2P_JnBU3-9" edge="1">
          <mxGeometry relative="1" as="geometry">
            <mxPoint x="-1036" y="450" as="targetPoint" />
            <mxPoint x="-1035" y="405" as="sourcePoint" />
          </mxGeometry>
        </mxCell>
        <mxCell id="TpdrdtEgg3zLDzQh49ds-87" value="" style="html=1;verticalAlign=bottom;endArrow=open;endSize=8;strokeColor=#ff0000;rounded=0;exitX=1;exitY=0;exitDx=0;exitDy=0;entryX=0.5;entryY=0;entryDx=0;entryDy=0;edgeStyle=orthogonalEdgeStyle;" parent="1" source="bBVDjb1Iw1jjZOPMRiYV-6" target="TpdrdtEgg3zLDzQh49ds-70" edge="1">
          <mxGeometry relative="1" as="geometry">
            <mxPoint x="-1300.42" y="414" as="targetPoint" />
            <mxPoint x="-1270" y="342" as="sourcePoint" />
          </mxGeometry>
        </mxCell>
        <mxCell id="0Ua5E3VJeulz5l_jUgdA-1" value="Edit" style="rounded=1;whiteSpace=wrap;html=1;arcSize=43;fontColor=#000000;fillColor=#ffffc0;strokeColor=#ff0000;" parent="1" vertex="1">
          <mxGeometry x="-1415.2199999999998" y="225" width="84.12" height="29" as="geometry" />
        </mxCell>
        <mxCell id="0Ua5E3VJeulz5l_jUgdA-2" value="Choice" style="rhombus;whiteSpace=wrap;html=1;fontColor=#000000;fillColor=#ffffc0;strokeColor=#ff0000;" parent="1" vertex="1">
          <mxGeometry x="-1413.1599999999999" y="143" width="80" height="40" as="geometry" />
        </mxCell>
        <mxCell id="0Ua5E3VJeulz5l_jUgdA-3" value="" style="edgeStyle=orthogonalEdgeStyle;html=1;verticalAlign=bottom;endArrow=open;endSize=8;strokeColor=#ff0000;rounded=0;exitX=0;exitY=0.5;exitDx=0;exitDy=0;entryX=0.5;entryY=0;entryDx=0;entryDy=0;" parent="1" source="0Ua5E3VJeulz5l_jUgdA-2" target="0Ua5E3VJeulz5l_jUgdA-7" edge="1">
          <mxGeometry relative="1" as="geometry">
            <mxPoint x="-1773.87" y="208" as="targetPoint" />
            <mxPoint x="-1897.12" y="173" as="sourcePoint" />
          </mxGeometry>
        </mxCell>
        <mxCell id="0Ua5E3VJeulz5l_jUgdA-4" value="Delete Quiz" style="rounded=1;whiteSpace=wrap;html=1;arcSize=43;fontColor=#000000;fillColor=#ffffc0;strokeColor=#ff0000;" parent="1" vertex="1">
          <mxGeometry x="-1110" y="230.5" width="93" height="30" as="geometry" />
        </mxCell>
        <mxCell id="0Ua5E3VJeulz5l_jUgdA-5" value="" style="html=1;verticalAlign=bottom;endArrow=open;endSize=8;strokeColor=#ff0000;rounded=0;exitX=0.5;exitY=1;exitDx=0;exitDy=0;entryX=0.5;entryY=0;entryDx=0;entryDy=0;edgeStyle=orthogonalEdgeStyle;" parent="1" source="0Ua5E3VJeulz5l_jUgdA-2" target="0Ua5E3VJeulz5l_jUgdA-1" edge="1">
          <mxGeometry relative="1" as="geometry">
            <mxPoint x="-1036.58" y="271" as="targetPoint" />
            <mxPoint x="-1035.58" y="226" as="sourcePoint" />
          </mxGeometry>
        </mxCell>
        <mxCell id="0Ua5E3VJeulz5l_jUgdA-6" value="" style="html=1;verticalAlign=bottom;endArrow=open;endSize=8;strokeColor=#ff0000;rounded=0;exitX=1;exitY=0.5;exitDx=0;exitDy=0;entryX=0.5;entryY=0;entryDx=0;entryDy=0;edgeStyle=orthogonalEdgeStyle;" parent="1" source="0Ua5E3VJeulz5l_jUgdA-2" target="0Ua5E3VJeulz5l_jUgdA-4" edge="1">
          <mxGeometry relative="1" as="geometry">
            <mxPoint x="-1363.58" y="235" as="targetPoint" />
            <mxPoint x="-1363.58" y="193" as="sourcePoint" />
          </mxGeometry>
        </mxCell>
        <mxCell id="0Ua5E3VJeulz5l_jUgdA-7" value="Details" style="rounded=1;whiteSpace=wrap;html=1;arcSize=43;fontColor=#000000;fillColor=#ffffc0;strokeColor=#ff0000;" parent="1" vertex="1">
          <mxGeometry x="-1919" y="220" width="93" height="30" as="geometry" />
        </mxCell>
        <mxCell id="0Ua5E3VJeulz5l_jUgdA-9" value="" style="html=1;verticalAlign=bottom;endArrow=open;endSize=8;strokeColor=#ff0000;rounded=0;exitX=0.5;exitY=1;exitDx=0;exitDy=0;edgeStyle=orthogonalEdgeStyle;entryX=0.5;entryY=0;entryDx=0;entryDy=0;" parent="1" source="vBNEGQhEsHAN2P_JnBU3-9" edge="1" target="AdY6GjGdceSSv15PTf1o-17">
          <mxGeometry relative="1" as="geometry">
            <mxPoint x="-1373" y="460" as="targetPoint" />
            <mxPoint x="-1372.72" y="434" as="sourcePoint" />
          </mxGeometry>
        </mxCell>
        <mxCell id="0Ua5E3VJeulz5l_jUgdA-25" value="Answer Records" style="rounded=1;whiteSpace=wrap;html=1;arcSize=43;fontColor=#000000;fillColor=#ffffc0;strokeColor=#ff0000;direction=east;flipH=0;" parent="1" vertex="1">
          <mxGeometry x="-1914.6399999999999" y="388" width="84.12" height="29" as="geometry" />
        </mxCell>
        <mxCell id="0Ua5E3VJeulz5l_jUgdA-26" value="Choice" style="rhombus;whiteSpace=wrap;html=1;fontColor=#000000;fillColor=#ffffc0;strokeColor=#ff0000;direction=east;flipH=0;" parent="1" vertex="1">
          <mxGeometry x="-1912.58" y="306" width="80" height="40" as="geometry" />
        </mxCell>
        <mxCell id="0Ua5E3VJeulz5l_jUgdA-28" value="" style="shape=line;html=1;strokeWidth=6;strokeColor=#ff0000;direction=east;flipH=0;" parent="1" vertex="1">
          <mxGeometry x="-2103" y="681" width="467" height="10" as="geometry" />
        </mxCell>
        <mxCell id="0Ua5E3VJeulz5l_jUgdA-29" value="" style="edgeStyle=orthogonalEdgeStyle;html=1;verticalAlign=bottom;endArrow=open;endSize=8;strokeColor=#ff0000;rounded=0;entryX=0.75;entryY=0.5;entryDx=0;entryDy=0;entryPerimeter=0;exitX=0.481;exitY=0.54;exitDx=0;exitDy=0;exitPerimeter=0;" parent="1" source="0Ua5E3VJeulz5l_jUgdA-42" edge="1">
          <mxGeometry relative="1" as="geometry">
            <mxPoint x="-1995.17" y="681" as="targetPoint" />
            <mxPoint x="-2222.127" y="492" as="sourcePoint" />
          </mxGeometry>
        </mxCell>
        <mxCell id="0Ua5E3VJeulz5l_jUgdA-30" value="" style="edgeStyle=orthogonalEdgeStyle;html=1;verticalAlign=bottom;endArrow=open;endSize=8;strokeColor=#ff0000;rounded=0;exitX=0.5;exitY=1;exitDx=0;exitDy=0;entryX=0.25;entryY=0.5;entryDx=0;entryDy=0;entryPerimeter=0;" parent="1" source="0Ua5E3VJeulz5l_jUgdA-32" edge="1">
          <mxGeometry relative="1" as="geometry">
            <mxPoint x="-1757.25" y="683" as="targetPoint" />
            <mxPoint x="-1528.6999999999998" y="487" as="sourcePoint" />
          </mxGeometry>
        </mxCell>
        <mxCell id="0Ua5E3VJeulz5l_jUgdA-31" value="" style="edgeStyle=orthogonalEdgeStyle;html=1;verticalAlign=bottom;endArrow=open;endSize=8;strokeColor=#ff0000;rounded=0;exitX=1;exitY=0.5;exitDx=0;exitDy=0;entryX=0.5;entryY=0;entryDx=0;entryDy=0;" parent="1" source="0Ua5E3VJeulz5l_jUgdA-26" target="0Ua5E3VJeulz5l_jUgdA-32" edge="1">
          <mxGeometry relative="1" as="geometry">
            <mxPoint x="-2273.29" y="371" as="targetPoint" />
            <mxPoint x="-2396.54" y="336" as="sourcePoint" />
          </mxGeometry>
        </mxCell>
        <mxCell id="0Ua5E3VJeulz5l_jUgdA-32" value="View Quiz Details" style="rounded=1;whiteSpace=wrap;html=1;arcSize=43;fontColor=#000000;fillColor=#ffffc0;strokeColor=#ff0000;direction=east;flipH=0;" parent="1" vertex="1">
          <mxGeometry x="-1804" y="385" width="93" height="30" as="geometry" />
        </mxCell>
        <mxCell id="0Ua5E3VJeulz5l_jUgdA-33" value="Export Student Records" style="rounded=1;whiteSpace=wrap;html=1;arcSize=43;fontColor=#000000;fillColor=#ffffc0;strokeColor=#ff0000;direction=east;flipH=0;" parent="1" vertex="1">
          <mxGeometry x="-2039.19" y="345" width="93" height="30" as="geometry" />
        </mxCell>
        <mxCell id="0Ua5E3VJeulz5l_jUgdA-34" value="" style="html=1;verticalAlign=bottom;endArrow=open;endSize=8;strokeColor=#ff0000;rounded=0;exitX=0.5;exitY=1;exitDx=0;exitDy=0;entryX=0.5;entryY=0;entryDx=0;entryDy=0;edgeStyle=orthogonalEdgeStyle;" parent="1" source="0Ua5E3VJeulz5l_jUgdA-26" target="0Ua5E3VJeulz5l_jUgdA-25" edge="1">
          <mxGeometry relative="1" as="geometry">
            <mxPoint x="-1536" y="434" as="targetPoint" />
            <mxPoint x="-1535" y="389" as="sourcePoint" />
          </mxGeometry>
        </mxCell>
        <mxCell id="0Ua5E3VJeulz5l_jUgdA-35" value="" style="html=1;verticalAlign=bottom;endArrow=open;endSize=8;strokeColor=#ff0000;rounded=0;exitX=0;exitY=0.5;exitDx=0;exitDy=0;entryX=0.5;entryY=0;entryDx=0;entryDy=0;edgeStyle=orthogonalEdgeStyle;" parent="1" source="0Ua5E3VJeulz5l_jUgdA-26" target="0Ua5E3VJeulz5l_jUgdA-33" edge="1">
          <mxGeometry relative="1" as="geometry">
            <mxPoint x="-1861" y="397" as="targetPoint" />
            <mxPoint x="-1910.58" y="325" as="sourcePoint" />
          </mxGeometry>
        </mxCell>
        <mxCell id="0Ua5E3VJeulz5l_jUgdA-36" value="" style="edgeStyle=orthogonalEdgeStyle;html=1;verticalAlign=bottom;endArrow=open;endSize=8;strokeColor=#ff0000;rounded=0;entryX=0.5;entryY=0;entryDx=0;entryDy=0;exitX=0.5;exitY=0;exitDx=0;exitDy=0;" parent="1" target="0Ua5E3VJeulz5l_jUgdA-51" edge="1">
          <mxGeometry relative="1" as="geometry">
            <mxPoint x="-1870.2" y="733" as="targetPoint" />
            <mxPoint x="-1870.62" y="689" as="sourcePoint" />
          </mxGeometry>
        </mxCell>
        <mxCell id="0Ua5E3VJeulz5l_jUgdA-37" value="" style="html=1;verticalAlign=bottom;endArrow=open;endSize=8;strokeColor=#ff0000;rounded=0;exitX=0.5;exitY=1;exitDx=0;exitDy=0;edgeStyle=orthogonalEdgeStyle;" parent="1" source="0Ua5E3VJeulz5l_jUgdA-25" edge="1">
          <mxGeometry relative="1" as="geometry">
            <mxPoint x="-1874" y="679" as="targetPoint" />
            <mxPoint x="-1875.6799999999998" y="489" as="sourcePoint" />
          </mxGeometry>
        </mxCell>
        <mxCell id="0Ua5E3VJeulz5l_jUgdA-38" value="" style="html=1;verticalAlign=bottom;endArrow=open;endSize=8;strokeColor=#ff0000;rounded=0;exitX=0.5;exitY=1;exitDx=0;exitDy=0;entryX=0.5;entryY=0;entryDx=0;entryDy=0;edgeStyle=orthogonalEdgeStyle;" parent="1" source="0Ua5E3VJeulz5l_jUgdA-7" target="0Ua5E3VJeulz5l_jUgdA-26" edge="1">
          <mxGeometry relative="1" as="geometry">
            <mxPoint x="-1864" y="398" as="targetPoint" />
            <mxPoint x="-1864" y="356" as="sourcePoint" />
          </mxGeometry>
        </mxCell>
        <mxCell id="0Ua5E3VJeulz5l_jUgdA-41" value="Choice" style="rhombus;whiteSpace=wrap;html=1;fontColor=#000000;fillColor=#ffffc0;strokeColor=#ff0000;direction=east;flipH=0;" parent="1" vertex="1">
          <mxGeometry x="-2032.69" y="406" width="80" height="40" as="geometry" />
        </mxCell>
        <mxCell id="0Ua5E3VJeulz5l_jUgdA-42" value="" style="shape=line;html=1;strokeWidth=6;strokeColor=#ff0000;direction=east;flipH=0;" parent="1" vertex="1">
          <mxGeometry x="-2099" y="532" width="217" height="10" as="geometry" />
        </mxCell>
        <mxCell id="0Ua5E3VJeulz5l_jUgdA-43" value="" style="edgeStyle=orthogonalEdgeStyle;html=1;verticalAlign=bottom;endArrow=open;endSize=8;strokeColor=#ff0000;rounded=0;exitX=0.5;exitY=1;exitDx=0;exitDy=0;entryX=0.75;entryY=0.5;entryDx=0;entryDy=0;entryPerimeter=0;" parent="1" source="0Ua5E3VJeulz5l_jUgdA-47" target="0Ua5E3VJeulz5l_jUgdA-42" edge="1">
          <mxGeometry relative="1" as="geometry">
            <mxPoint x="-1977.71" y="580" as="targetPoint" />
            <mxPoint x="-1977.71" y="549" as="sourcePoint" />
          </mxGeometry>
        </mxCell>
        <mxCell id="0Ua5E3VJeulz5l_jUgdA-44" value="" style="edgeStyle=orthogonalEdgeStyle;html=1;verticalAlign=bottom;endArrow=open;endSize=8;strokeColor=#ff0000;rounded=0;exitX=0.5;exitY=1;exitDx=0;exitDy=0;entryX=0.25;entryY=0.5;entryDx=0;entryDy=0;entryPerimeter=0;" parent="1" source="0Ua5E3VJeulz5l_jUgdA-46" target="0Ua5E3VJeulz5l_jUgdA-42" edge="1">
          <mxGeometry relative="1" as="geometry">
            <mxPoint x="-1883.6899999999998" y="597" as="targetPoint" />
            <mxPoint x="-1881.1999999999998" y="550" as="sourcePoint" />
          </mxGeometry>
        </mxCell>
        <mxCell id="0Ua5E3VJeulz5l_jUgdA-45" value="" style="edgeStyle=orthogonalEdgeStyle;html=1;verticalAlign=bottom;endArrow=open;endSize=8;strokeColor=#ff0000;rounded=0;exitX=0.5;exitY=1;exitDx=0;exitDy=0;entryX=0.5;entryY=0;entryDx=0;entryDy=0;" parent="1" source="0Ua5E3VJeulz5l_jUgdA-41" target="0Ua5E3VJeulz5l_jUgdA-46" edge="1">
          <mxGeometry relative="1" as="geometry">
            <mxPoint x="-2384.71" y="451" as="targetPoint" />
            <mxPoint x="-2507.96" y="416" as="sourcePoint" />
            <Array as="points">
              <mxPoint x="-1993" y="455" />
              <mxPoint x="-2045" y="455" />
            </Array>
          </mxGeometry>
        </mxCell>
        <mxCell id="0Ua5E3VJeulz5l_jUgdA-46" value="CSV File" style="rounded=1;whiteSpace=wrap;html=1;arcSize=43;fontColor=#000000;fillColor=#ffffc0;strokeColor=#ff0000;direction=east;flipH=0;" parent="1" vertex="1">
          <mxGeometry x="-2090" y="474" width="90" height="26" as="geometry" />
        </mxCell>
        <mxCell id="0Ua5E3VJeulz5l_jUgdA-47" value="PDF File" style="rounded=1;whiteSpace=wrap;html=1;arcSize=43;fontColor=#000000;fillColor=#ffffc0;strokeColor=#ff0000;direction=east;flipH=0;" parent="1" vertex="1">
          <mxGeometry x="-1982" y="474" width="90" height="26" as="geometry" />
        </mxCell>
        <mxCell id="0Ua5E3VJeulz5l_jUgdA-49" value="" style="html=1;verticalAlign=bottom;endArrow=open;endSize=8;strokeColor=#ff0000;rounded=0;exitX=1;exitY=0.5;exitDx=0;exitDy=0;entryX=0.5;entryY=0;entryDx=0;entryDy=0;edgeStyle=orthogonalEdgeStyle;" parent="1" source="0Ua5E3VJeulz5l_jUgdA-41" target="0Ua5E3VJeulz5l_jUgdA-47" edge="1">
          <mxGeometry relative="1" as="geometry">
            <mxPoint x="-1974.42" y="478" as="targetPoint" />
            <mxPoint x="-1974.42" y="436" as="sourcePoint" />
          </mxGeometry>
        </mxCell>
        <mxCell id="0Ua5E3VJeulz5l_jUgdA-51" value="" style="ellipse;html=1;shape=endState;fillColor=#000000;strokeColor=#ff0000;direction=east;flipH=0;" parent="1" vertex="1">
          <mxGeometry x="-1884.5" y="740" width="30" height="30" as="geometry" />
        </mxCell>
        <mxCell id="0Ua5E3VJeulz5l_jUgdA-59" value="" style="edgeStyle=orthogonalEdgeStyle;html=1;verticalAlign=bottom;endArrow=open;endSize=8;strokeColor=#ff0000;rounded=0;exitX=0.5;exitY=1;exitDx=0;exitDy=0;entryX=0.5;entryY=0;entryDx=0;entryDy=0;" parent="1" source="0Ua5E3VJeulz5l_jUgdA-4" target="0Ua5E3VJeulz5l_jUgdA-60" edge="1">
          <mxGeometry relative="1" as="geometry">
            <mxPoint x="-1063" y="310.5" as="targetPoint" />
            <mxPoint x="-1217" y="446.5" as="sourcePoint" />
          </mxGeometry>
        </mxCell>
        <mxCell id="0Ua5E3VJeulz5l_jUgdA-60" value="Confirm" style="rhombus;whiteSpace=wrap;html=1;fontColor=#000000;fillColor=#ffffc0;strokeColor=#ff0000;" parent="1" vertex="1">
          <mxGeometry x="-1103.5" y="316.5" width="80" height="40" as="geometry" />
        </mxCell>
        <mxCell id="0Ua5E3VJeulz5l_jUgdA-61" value="no" style="html=1;align=left;verticalAlign=bottom;endArrow=open;endSize=8;strokeColor=#ff0000;rounded=0;entryX=1;entryY=0.75;entryDx=0;entryDy=0;exitX=1;exitY=0.5;exitDx=0;exitDy=0;edgeStyle=orthogonalEdgeStyle;" parent="1" source="0Ua5E3VJeulz5l_jUgdA-60" target="BYvYoB54RzEUqweGQ_cK-1" edge="1">
          <mxGeometry x="-1" relative="1" as="geometry">
            <mxPoint x="-1309" y="85" as="targetPoint" />
            <Array as="points">
              <mxPoint x="-1001" y="337" />
              <mxPoint x="-1001" y="88" />
            </Array>
          </mxGeometry>
        </mxCell>
        <mxCell id="0Ua5E3VJeulz5l_jUgdA-62" value="yes" style="edgeStyle=orthogonalEdgeStyle;html=1;align=left;verticalAlign=top;endArrow=open;endSize=8;strokeColor=#ff0000;rounded=0;entryX=0.5;entryY=0;entryDx=0;entryDy=0;" parent="1" source="0Ua5E3VJeulz5l_jUgdA-60" target="0Ua5E3VJeulz5l_jUgdA-63" edge="1">
          <mxGeometry x="-1" relative="1" as="geometry">
            <mxPoint x="-1064" y="403.5" as="targetPoint" />
          </mxGeometry>
        </mxCell>
        <mxCell id="0Ua5E3VJeulz5l_jUgdA-63" value="Quiz Deleted" style="rounded=1;whiteSpace=wrap;html=1;arcSize=43;fontColor=#000000;fillColor=#ffffc0;strokeColor=#ff0000;" parent="1" vertex="1">
          <mxGeometry x="-1110" y="405.5" width="93" height="30" as="geometry" />
        </mxCell>
        <mxCell id="0Ua5E3VJeulz5l_jUgdA-64" value="" style="edgeStyle=orthogonalEdgeStyle;html=1;verticalAlign=bottom;endArrow=open;endSize=8;strokeColor=#ff0000;rounded=0;exitX=0.5;exitY=1;exitDx=0;exitDy=0;entryX=0.5;entryY=0;entryDx=0;entryDy=0;" parent="1" source="0Ua5E3VJeulz5l_jUgdA-63" target="0Ua5E3VJeulz5l_jUgdA-65" edge="1">
          <mxGeometry relative="1" as="geometry">
            <mxPoint x="-1063" y="465.5" as="targetPoint" />
            <mxPoint x="-1053" y="270.5" as="sourcePoint" />
          </mxGeometry>
        </mxCell>
        <mxCell id="0Ua5E3VJeulz5l_jUgdA-65" value="" style="ellipse;html=1;shape=endState;fillColor=#000000;strokeColor=#ff0000;" parent="1" vertex="1">
          <mxGeometry x="-1078.5" y="469.5" width="30" height="30" as="geometry" />
        </mxCell>
        <mxCell id="0Ua5E3VJeulz5l_jUgdA-67" value="" style="html=1;verticalAlign=bottom;endArrow=open;endSize=8;strokeColor=#ff0000;rounded=0;exitX=0.5;exitY=1;exitDx=0;exitDy=0;entryX=0.5;entryY=0;entryDx=0;entryDy=0;edgeStyle=orthogonalEdgeStyle;" parent="1" source="0Ua5E3VJeulz5l_jUgdA-33" target="0Ua5E3VJeulz5l_jUgdA-41" edge="1">
          <mxGeometry relative="1" as="geometry">
            <mxPoint x="-2105.42" y="393" as="targetPoint" />
            <mxPoint x="-2105.42" y="351" as="sourcePoint" />
          </mxGeometry>
        </mxCell>
        <mxCell id="47kWRe6Ud4S-gsLlYmcf-1" value="" style="html=1;verticalAlign=bottom;endArrow=open;endSize=8;strokeColor=#ff0000;rounded=0;exitX=0;exitY=1;exitDx=0;exitDy=0;entryX=0.5;entryY=0;entryDx=0;entryDy=0;edgeStyle=orthogonalEdgeStyle;" parent="1" source="bBVDjb1Iw1jjZOPMRiYV-6" target="47kWRe6Ud4S-gsLlYmcf-2" edge="1">
          <mxGeometry relative="1" as="geometry">
            <mxPoint x="-1363" y="414" as="targetPoint" />
            <mxPoint x="-1363" y="372" as="sourcePoint" />
          </mxGeometry>
        </mxCell>
        <mxCell id="47kWRe6Ud4S-gsLlYmcf-2" value="Edit&amp;nbsp; Question" style="rounded=1;whiteSpace=wrap;html=1;arcSize=43;fontColor=#000000;fillColor=#ffffc0;strokeColor=#ff0000;" parent="1" vertex="1">
          <mxGeometry x="-1532.9999999999998" y="405.5" width="84.12" height="29" as="geometry" />
        </mxCell>
        <mxCell id="47kWRe6Ud4S-gsLlYmcf-3" value="" style="html=1;verticalAlign=bottom;endArrow=open;endSize=8;strokeColor=#ff0000;rounded=0;exitX=0.5;exitY=1;exitDx=0;exitDy=0;edgeStyle=orthogonalEdgeStyle;entryX=0.5;entryY=0;entryDx=0;entryDy=0;" parent="1" source="47kWRe6Ud4S-gsLlYmcf-2" target="AdY6GjGdceSSv15PTf1o-28" edge="1">
          <mxGeometry relative="1" as="geometry">
            <mxPoint x="-1491" y="459" as="targetPoint" />
            <mxPoint x="-1363" y="443" as="sourcePoint" />
          </mxGeometry>
        </mxCell>
        <mxCell id="AdY6GjGdceSSv15PTf1o-1" value="Add New Question" style="rounded=1;whiteSpace=wrap;html=1;arcSize=43;fontColor=#000000;fillColor=#ffffc0;strokeColor=#ff0000;" vertex="1" parent="1">
          <mxGeometry x="-1294.69" y="402.25" width="83.69" height="30.5" as="geometry" />
        </mxCell>
        <mxCell id="AdY6GjGdceSSv15PTf1o-2" value="" style="html=1;verticalAlign=bottom;endArrow=open;endSize=8;strokeColor=#ff0000;rounded=0;exitX=1;exitY=1;exitDx=0;exitDy=0;entryX=0.5;entryY=0;entryDx=0;entryDy=0;edgeStyle=orthogonalEdgeStyle;" edge="1" target="AdY6GjGdceSSv15PTf1o-1" parent="1" source="bBVDjb1Iw1jjZOPMRiYV-6">
          <mxGeometry relative="1" as="geometry">
            <mxPoint x="-958.36" y="450" as="targetPoint" />
            <mxPoint x="-1295.36" y="362" as="sourcePoint" />
          </mxGeometry>
        </mxCell>
        <mxCell id="AdY6GjGdceSSv15PTf1o-3" value="" style="html=1;verticalAlign=bottom;endArrow=open;endSize=8;strokeColor=#ff0000;rounded=0;exitX=0.5;exitY=1;exitDx=0;exitDy=0;edgeStyle=orthogonalEdgeStyle;entryX=0.5;entryY=0;entryDx=0;entryDy=0;" edge="1" source="AdY6GjGdceSSv15PTf1o-1" parent="1" target="AdY6GjGdceSSv15PTf1o-5">
          <mxGeometry relative="1" as="geometry">
            <mxPoint x="-1253" y="466.75" as="targetPoint" />
            <mxPoint x="-1262.08" y="431.75" as="sourcePoint" />
          </mxGeometry>
        </mxCell>
        <mxCell id="AdY6GjGdceSSv15PTf1o-5" value="Enter New Question" style="rounded=1;whiteSpace=wrap;html=1;arcSize=43;fontColor=#000000;fillColor=#ffffc0;strokeColor=#ff0000;" vertex="1" parent="1">
          <mxGeometry x="-1295.1199999999997" y="451.75" width="84.12" height="29" as="geometry" />
        </mxCell>
        <mxCell id="AdY6GjGdceSSv15PTf1o-6" value="" style="html=1;verticalAlign=bottom;endArrow=open;endSize=8;strokeColor=#ff0000;rounded=0;exitX=0.5;exitY=1;exitDx=0;exitDy=0;edgeStyle=orthogonalEdgeStyle;entryX=0.456;entryY=0.239;entryDx=0;entryDy=0;entryPerimeter=0;" edge="1" parent="1" source="AdY6GjGdceSSv15PTf1o-5" target="AdY6GjGdceSSv15PTf1o-9">
          <mxGeometry relative="1" as="geometry">
            <mxPoint x="-1253" y="508.75" as="targetPoint" />
            <mxPoint x="-1330" y="440.75" as="sourcePoint" />
          </mxGeometry>
        </mxCell>
        <mxCell id="AdY6GjGdceSSv15PTf1o-7" value="Add" style="rounded=1;whiteSpace=wrap;html=1;arcSize=43;fontColor=#000000;fillColor=#ffffc0;strokeColor=#ff0000;" vertex="1" parent="1">
          <mxGeometry x="-1292" y="534.75" width="39" height="15" as="geometry" />
        </mxCell>
        <mxCell id="AdY6GjGdceSSv15PTf1o-8" value="" style="html=1;verticalAlign=bottom;endArrow=open;endSize=8;strokeColor=#ff0000;rounded=0;exitX=0.5;exitY=1;exitDx=0;exitDy=0;edgeStyle=orthogonalEdgeStyle;entryX=0.5;entryY=0;entryDx=0;entryDy=0;" edge="1" source="AdY6GjGdceSSv15PTf1o-7" parent="1" target="AdY6GjGdceSSv15PTf1o-22">
          <mxGeometry relative="1" as="geometry">
            <mxPoint x="-1273" y="579" as="targetPoint" />
            <mxPoint x="-1329.57" y="506.75" as="sourcePoint" />
          </mxGeometry>
        </mxCell>
        <mxCell id="AdY6GjGdceSSv15PTf1o-9" value="" style="shape=line;html=1;strokeWidth=6;strokeColor=#ff0000;" vertex="1" parent="1">
          <mxGeometry x="-1297" y="502.75" width="97" height="10" as="geometry" />
        </mxCell>
        <mxCell id="AdY6GjGdceSSv15PTf1o-10" value="" style="html=1;verticalAlign=bottom;endArrow=open;endSize=8;strokeColor=#ff0000;rounded=0;exitX=0.25;exitY=0.5;exitDx=0;exitDy=0;edgeStyle=orthogonalEdgeStyle;exitPerimeter=0;entryX=0.5;entryY=0;entryDx=0;entryDy=0;" edge="1" parent="1" source="AdY6GjGdceSSv15PTf1o-9" target="AdY6GjGdceSSv15PTf1o-7">
          <mxGeometry relative="1" as="geometry">
            <mxPoint x="-1276.02" y="538.75" as="targetPoint" />
            <mxPoint x="-1276.02" y="509.75" as="sourcePoint" />
          </mxGeometry>
        </mxCell>
        <mxCell id="AdY6GjGdceSSv15PTf1o-13" value="" style="html=1;verticalAlign=bottom;endArrow=open;endSize=8;strokeColor=#ff0000;rounded=0;exitX=0.5;exitY=1;exitDx=0;exitDy=0;edgeStyle=orthogonalEdgeStyle;entryX=1;entryY=0.5;entryDx=0;entryDy=0;" edge="1" source="AdY6GjGdceSSv15PTf1o-14" parent="1" target="bBVDjb1Iw1jjZOPMRiYV-6">
          <mxGeometry relative="1" as="geometry">
            <mxPoint x="-1222.31" y="581.75" as="targetPoint" />
            <mxPoint x="-1276.8799999999999" y="509.75" as="sourcePoint" />
            <Array as="points">
              <mxPoint x="-1225" y="572" />
              <mxPoint x="-1194" y="572" />
              <mxPoint x="-1194" y="342" />
            </Array>
          </mxGeometry>
        </mxCell>
        <mxCell id="AdY6GjGdceSSv15PTf1o-14" value="Cancel" style="rounded=1;whiteSpace=wrap;html=1;arcSize=43;fontColor=#000000;fillColor=#ffffc0;strokeColor=#ff0000;" vertex="1" parent="1">
          <mxGeometry x="-1247" y="534.75" width="44" height="18" as="geometry" />
        </mxCell>
        <mxCell id="AdY6GjGdceSSv15PTf1o-15" value="" style="html=1;verticalAlign=bottom;endArrow=open;endSize=8;strokeColor=#ff0000;rounded=0;exitX=0.75;exitY=0.5;exitDx=0;exitDy=0;edgeStyle=orthogonalEdgeStyle;exitPerimeter=0;entryX=0.5;entryY=0;entryDx=0;entryDy=0;" edge="1" target="AdY6GjGdceSSv15PTf1o-14" parent="1" source="AdY6GjGdceSSv15PTf1o-9">
          <mxGeometry relative="1" as="geometry">
            <mxPoint x="-1223.33" y="541.75" as="targetPoint" />
            <mxPoint x="-1220.31" y="510.75" as="sourcePoint" />
          </mxGeometry>
        </mxCell>
        <mxCell id="AdY6GjGdceSSv15PTf1o-17" value="Comfirm?" style="rhombus;whiteSpace=wrap;html=1;fontColor=#000000;fillColor=#ffffc0;strokeColor=#ff0000;" vertex="1" parent="1">
          <mxGeometry x="-1413.1599999999999" y="469.5" width="80" height="40" as="geometry" />
        </mxCell>
        <mxCell id="AdY6GjGdceSSv15PTf1o-18" value="no" style="edgeStyle=orthogonalEdgeStyle;html=1;align=left;verticalAlign=bottom;endArrow=open;endSize=8;strokeColor=#ff0000;rounded=0;entryX=0.627;entryY=0.872;entryDx=0;entryDy=0;exitX=1;exitY=0.5;exitDx=0;exitDy=0;entryPerimeter=0;" edge="1" source="AdY6GjGdceSSv15PTf1o-17" parent="1" target="bBVDjb1Iw1jjZOPMRiYV-6">
          <mxGeometry x="-1" relative="1" as="geometry">
            <mxPoint x="-1284" y="458" as="targetPoint" />
            <Array as="points">
              <mxPoint x="-1318" y="489" />
              <mxPoint x="-1318" y="386" />
              <mxPoint x="-1362" y="386" />
            </Array>
          </mxGeometry>
        </mxCell>
        <mxCell id="AdY6GjGdceSSv15PTf1o-19" value="yes" style="edgeStyle=orthogonalEdgeStyle;html=1;align=left;verticalAlign=top;endArrow=open;endSize=8;strokeColor=#ff0000;rounded=0;exitX=0.5;exitY=1;exitDx=0;exitDy=0;entryX=0.5;entryY=0;entryDx=0;entryDy=0;" edge="1" source="AdY6GjGdceSSv15PTf1o-17" parent="1" target="AdY6GjGdceSSv15PTf1o-20">
          <mxGeometry x="-1" relative="1" as="geometry">
            <mxPoint x="-1373" y="542" as="targetPoint" />
          </mxGeometry>
        </mxCell>
        <mxCell id="AdY6GjGdceSSv15PTf1o-20" value="Question Deleted" style="rounded=1;whiteSpace=wrap;html=1;arcSize=43;fontColor=#000000;fillColor=#ffffc0;strokeColor=#ff0000;" vertex="1" parent="1">
          <mxGeometry x="-1408.4399999999998" y="545" width="72.33" height="32" as="geometry" />
        </mxCell>
        <mxCell id="AdY6GjGdceSSv15PTf1o-21" value="" style="html=1;verticalAlign=bottom;endArrow=open;endSize=8;strokeColor=#ff0000;rounded=0;exitX=0.5;exitY=1;exitDx=0;exitDy=0;edgeStyle=orthogonalEdgeStyle;entryX=0.366;entryY=0.918;entryDx=0;entryDy=0;entryPerimeter=0;" edge="1" parent="1" source="AdY6GjGdceSSv15PTf1o-20" target="bBVDjb1Iw1jjZOPMRiYV-6">
          <mxGeometry relative="1" as="geometry">
            <mxPoint x="-1378" y="364" as="targetPoint" />
            <mxPoint x="-1368.16" y="583" as="sourcePoint" />
            <Array as="points">
              <mxPoint x="-1372" y="587" />
              <mxPoint x="-1418" y="587" />
              <mxPoint x="-1418" y="394" />
              <mxPoint x="-1383" y="394" />
            </Array>
          </mxGeometry>
        </mxCell>
        <mxCell id="AdY6GjGdceSSv15PTf1o-22" value="Question Added" style="rounded=1;whiteSpace=wrap;html=1;arcSize=43;fontColor=#000000;fillColor=#ffffc0;strokeColor=#ff0000;" vertex="1" parent="1">
          <mxGeometry x="-1301.28" y="570" width="57.56" height="30" as="geometry" />
        </mxCell>
        <mxCell id="AdY6GjGdceSSv15PTf1o-23" value="" style="html=1;verticalAlign=bottom;endArrow=open;endSize=8;strokeColor=#ff0000;rounded=0;exitX=0.5;exitY=1;exitDx=0;exitDy=0;edgeStyle=orthogonalEdgeStyle;entryX=1;entryY=1;entryDx=0;entryDy=0;" edge="1" parent="1" source="AdY6GjGdceSSv15PTf1o-22" target="bBVDjb1Iw1jjZOPMRiYV-6">
          <mxGeometry relative="1" as="geometry">
            <mxPoint x="-1262" y="580" as="targetPoint" />
            <mxPoint x="-1262" y="560" as="sourcePoint" />
            <Array as="points">
              <mxPoint x="-1273" y="610" />
              <mxPoint x="-1310" y="610" />
              <mxPoint x="-1310" y="367" />
              <mxPoint x="-1353" y="367" />
            </Array>
          </mxGeometry>
        </mxCell>
        <mxCell id="AdY6GjGdceSSv15PTf1o-28" value="Save Changes" style="rounded=1;whiteSpace=wrap;html=1;arcSize=43;fontColor=#000000;fillColor=#ffffc0;strokeColor=#ff0000;" vertex="1" parent="1">
          <mxGeometry x="-1533" y="460" width="84.72" height="27" as="geometry" />
        </mxCell>
        <mxCell id="AdY6GjGdceSSv15PTf1o-29" value="" style="html=1;verticalAlign=bottom;endArrow=open;endSize=8;strokeColor=#ff0000;rounded=0;exitX=0.5;exitY=1;exitDx=0;exitDy=0;entryX=0.366;entryY=0.918;entryDx=0;entryDy=0;entryPerimeter=0;edgeStyle=orthogonalEdgeStyle;" edge="1" parent="1" source="AdY6GjGdceSSv15PTf1o-28">
          <mxGeometry relative="1" as="geometry">
            <mxPoint x="-1396" y="352.25" as="targetPoint" />
            <mxPoint x="-1385" y="570.25" as="sourcePoint" />
            <Array as="points">
              <mxPoint x="-1491" y="510" />
              <mxPoint x="-1436" y="510" />
              <mxPoint x="-1436" y="385" />
              <mxPoint x="-1396" y="385" />
            </Array>
          </mxGeometry>
        </mxCell>
        <mxCell id="AdY6GjGdceSSv15PTf1o-30" value="" style="html=1;verticalAlign=bottom;endArrow=open;endSize=8;strokeColor=#ff0000;rounded=0;exitX=0;exitY=0.5;exitDx=0;exitDy=0;entryX=0.5;entryY=0;entryDx=0;entryDy=0;edgeStyle=orthogonalEdgeStyle;" edge="1" parent="1" source="0Ua5E3VJeulz5l_jUgdA-41" target="AdY6GjGdceSSv15PTf1o-31">
          <mxGeometry relative="1" as="geometry">
            <mxPoint x="-1927" y="484" as="targetPoint" />
            <mxPoint x="-1943" y="436" as="sourcePoint" />
          </mxGeometry>
        </mxCell>
        <mxCell id="AdY6GjGdceSSv15PTf1o-31" value="Home" style="rounded=1;whiteSpace=wrap;html=1;arcSize=43;fontColor=#000000;fillColor=#ffffc0;strokeColor=#ff0000;" vertex="1" parent="1">
          <mxGeometry x="-2161" y="475.5" width="53" height="24" as="geometry" />
        </mxCell>
        <mxCell id="AdY6GjGdceSSv15PTf1o-32" value="" style="html=1;verticalAlign=bottom;endArrow=open;endSize=8;strokeColor=#ff0000;rounded=0;exitX=0;exitY=0.5;exitDx=0;exitDy=0;entryX=0;entryY=0.5;entryDx=0;entryDy=0;edgeStyle=orthogonalEdgeStyle;" edge="1" parent="1" source="AdY6GjGdceSSv15PTf1o-31" target="BYvYoB54RzEUqweGQ_cK-1">
          <mxGeometry relative="1" as="geometry">
            <mxPoint x="-2035" y="547" as="targetPoint" />
            <mxPoint x="-2035" y="510" as="sourcePoint" />
            <Array as="points">
              <mxPoint x="-2195" y="488" />
              <mxPoint x="-2195" y="75" />
            </Array>
          </mxGeometry>
        </mxCell>
      </root>
    </mxGraphModel>
  </diagram>
</mxfile>
